<svg width="120" height="120" viewBox="0 0 120 120" fill="none" xmlns="http://www.w3.org/2000/svg">
<rect width="120" height="120" fill="white"/>
<path d="M15 59.9021C15 51.4336 20.3265 46 27.0322 46C31.2648 46 34.1658 48.0559 35.7353 50.3077V46.4406H42.4409V73.5594H35.7353V69.5944C34.1658 71.9441 31.1697 74 26.9846 74C20.3265 74 15 68.3706 15 59.9021ZM35.7353 60C35.7353 54.8601 32.4062 52.021 28.7442 52.021C25.1774 52.021 21.8008 54.7622 21.8008 59.9021C21.8008 65.042 25.1774 67.979 28.7442 67.979C32.4062 67.979 35.7353 65.1399 35.7353 60Z" fill="#DD1F26"/>
<path d="M74.3872 60C74.3872 68.5175 68.2998 74 60.643 74C53.0337 74 47.2792 68.5175 47.2792 60C47.2792 51.4336 53.2239 46 60.8332 46C68.4425 46 74.3872 51.4336 74.3872 60ZM54.0324 60C54.0324 65.3846 57.0761 68.028 60.643 68.028C64.1622 68.028 67.5389 65.3846 67.5389 60C67.5389 54.5664 64.2574 51.972 60.7381 51.972C57.2188 51.972 54.0324 54.5664 54.0324 60Z" fill="#DD1F26"/>
<path d="M77.5591 59.9021C77.5591 51.4336 82.8856 46 89.5912 46C93.8239 46 96.7249 48.0559 98.2943 50.3077V46.4406H105V73.5594H98.2943V69.5944C96.7249 71.9441 93.7288 74 89.5437 74C82.8856 74 77.5591 68.3706 77.5591 59.9021ZM98.2943 60C98.2943 54.8601 94.9653 52.021 91.3033 52.021C87.7365 52.021 84.3599 54.7622 84.3599 59.9021C84.3599 65.042 87.7365 67.979 91.3033 67.979C94.9653 67.979 98.2943 65.1399 98.2943 60Z" fill="#DD1F26"/>
</svg>
